<mxfile host="Electron" agent="Mozilla/5.0 (Windows NT 10.0; Win64; x64) AppleWebKit/537.36 (KHTML, like Gecko) draw.io/27.0.5 Chrome/134.0.6998.205 Electron/35.3.0 Safari/537.36" version="27.0.5">
  <diagram name="第 1 页" id="7iGjtiUbWDfkaIBEZjyy">
    <mxGraphModel dx="821" dy="702" grid="1" gridSize="10" guides="1" tooltips="1" connect="1" arrows="1" fold="1" page="1" pageScale="1" pageWidth="827" pageHeight="1169" math="0" shadow="0">
      <root>
        <mxCell id="0" />
        <mxCell id="1" parent="0" />
        <mxCell id="b3RxcPWhkJzNW4-PjCDw-1" value="" style="rounded=1;whiteSpace=wrap;html=1;fillColor=#f8cecc;strokeColor=#b85450;opacity=80;" parent="1" vertex="1">
          <mxGeometry x="250" y="250" width="190" height="150" as="geometry" />
        </mxCell>
        <mxCell id="b3RxcPWhkJzNW4-PjCDw-2" value="&lt;div style=&quot;color: rgb(216, 222, 233); font-family: Consolas, &amp;quot;Courier New&amp;quot;, monospace; font-size: 14px; line-height: 19px; white-space: pre;&quot;&gt;&lt;span&gt;&lt;span style=&quot;color: rgb(170, 155, 245);&quot;&gt;ctx&lt;/span&gt;&lt;span style=&quot;color: rgb(214, 214, 221);&quot;&gt;:&lt;/span&gt; &lt;span style=&quot;color: rgb(135, 195, 255);&quot;&gt;WPS4Context&lt;/span&gt;&lt;/span&gt;&lt;/div&gt;" style="rounded=0;whiteSpace=wrap;html=1;fillColor=#f8cecc;strokeColor=#b85450;" parent="1" vertex="1">
          <mxGeometry x="274" y="290" width="140" height="30" as="geometry" />
        </mxCell>
        <mxCell id="b3RxcPWhkJzNW4-PjCDw-3" value="&lt;div style=&quot;color: rgb(216, 222, 233); font-family: Consolas, &amp;quot;Courier New&amp;quot;, monospace; font-size: 14px; line-height: 19px; white-space: pre;&quot;&gt;&lt;div style=&quot;line-height: 19px;&quot;&gt;&lt;span&gt;&lt;span style=&quot;color: rgb(239, 176, 128); font-weight: bold;&quot;&gt;init&lt;/span&gt;()&lt;/span&gt;&lt;/div&gt;&lt;/div&gt;" style="rounded=0;whiteSpace=wrap;html=1;fillColor=#f8cecc;strokeColor=#b85450;" parent="1" vertex="1">
          <mxGeometry x="274" y="340" width="140" height="30" as="geometry" />
        </mxCell>
        <mxCell id="b3RxcPWhkJzNW4-PjCDw-4" value="&lt;span style=&quot;color: rgba(0, 0, 0, 0); font-family: monospace; font-size: 0px; text-align: start;&quot;&gt;%3CmxGraphModel%3E%3Croot%3E%3CmxCell%20id%3D%220%22%2F%3E%3CmxCell%20id%3D%221%22%20parent%3D%220%22%2F%3E%3CmxCell%20id%3D%222%22%20value%3D%22%26lt%3Bdiv%20style%3D%26quot%3Bcolor%3A%20rgb(216%2C%20222%2C%20233)%3B%20background-color%3A%20rgb(26%2C%2026%2C%2026)%3B%20font-family%3A%20Consolas%2C%20%26amp%3Bquot%3BCourier%20New%26amp%3Bquot%3B%2C%20monospace%3B%20font-size%3A%2014px%3B%20line-height%3A%2019px%3B%20white-space%3A%20pre%3B%26quot%3B%26gt%3B%26lt%3Bspan%20style%3D%26quot%3Bcolor%3A%20%23aa9bf5%3B%26quot%3B%26gt%3Bctx%26lt%3B%2Fspan%26gt%3B%26lt%3Bspan%20style%3D%26quot%3Bcolor%3A%20%23d6d6dd%3B%26quot%3B%26gt%3B%3A%26lt%3B%2Fspan%26gt%3B%20%26lt%3Bspan%20style%3D%26quot%3Bcolor%3A%20%2387c3ff%3B%26quot%3B%26gt%3BWPS4Context%26lt%3B%2Fspan%26gt%3B%26lt%3B%2Fdiv%26gt%3B%22%20style%3D%22rounded%3D0%3BwhiteSpace%3Dwrap%3Bhtml%3D1%3BfillColor%3D%23f8cecc%3BstrokeColor%3D%23b85450%3B%22%20vertex%3D%221%22%20parent%3D%221%22%3E%3CmxGeometry%20x%3D%22280%22%20y%3D%22290%22%20width%3D%22120%22%20height%3D%2230%22%20as%3D%22geometry%22%2F%3E%3C%2FmxCell%3E%3C%2Froot%3E%3C%2FmxGraphModel%3E&lt;/span&gt;" style="text;html=1;align=center;verticalAlign=middle;resizable=0;points=[];autosize=1;strokeColor=none;fillColor=none;" parent="1" vertex="1">
          <mxGeometry x="320" y="350" width="20" height="30" as="geometry" />
        </mxCell>
        <mxCell id="b3RxcPWhkJzNW4-PjCDw-5" value="&lt;div style=&quot;font-family: Consolas, &amp;quot;Courier New&amp;quot;, monospace; font-weight: normal; font-size: 14px; line-height: 19px; white-space: pre;&quot;&gt;&lt;div style=&quot;&quot;&gt;&lt;span style=&quot;font-style: italic;&quot;&gt;&lt;font style=&quot;color: rgb(255, 0, 0);&quot;&gt;WPS4服务单例&lt;/font&gt;&lt;/span&gt;&lt;/div&gt;&lt;/div&gt;" style="text;whiteSpace=wrap;html=1;" parent="1" vertex="1">
          <mxGeometry x="300" y="180" width="120" height="40" as="geometry" />
        </mxCell>
        <mxCell id="b3RxcPWhkJzNW4-PjCDw-6" value="ecisaccountsync\src\common\cams.ts" style="text;html=1;align=center;verticalAlign=middle;resizable=0;points=[];autosize=1;strokeColor=none;fillColor=none;" parent="1" vertex="1">
          <mxGeometry x="235" y="218" width="220" height="30" as="geometry" />
        </mxCell>
        <mxCell id="b3RxcPWhkJzNW4-PjCDw-7" value="" style="rounded=1;whiteSpace=wrap;html=1;fillColor=#f8cecc;strokeColor=#b85450;opacity=80;" parent="1" vertex="1">
          <mxGeometry x="630" y="250" width="390" height="310" as="geometry" />
        </mxCell>
        <mxCell id="b3RxcPWhkJzNW4-PjCDw-8" value="&lt;div style=&quot;color: rgb(216, 222, 233); font-family: Consolas, &amp;quot;Courier New&amp;quot;, monospace; font-size: 14px; line-height: 19px; white-space: pre;&quot;&gt;&lt;div style=&quot;line-height: 19px;&quot;&gt;&lt;span&gt;&lt;span style=&quot;color: rgb(170, 155, 245);&quot;&gt;host&lt;/span&gt;&lt;span style=&quot;color: rgb(214, 214, 221);&quot;&gt;:&lt;/span&gt; &lt;span style=&quot;color: rgb(130, 210, 206);&quot;&gt;string&lt;/span&gt; &lt;/span&gt;&lt;/div&gt;&lt;/div&gt;" style="rounded=0;whiteSpace=wrap;html=1;fillColor=#f8cecc;strokeColor=#b85450;" parent="1" vertex="1">
          <mxGeometry x="660" y="300" width="159" height="30" as="geometry" />
        </mxCell>
        <mxCell id="b3RxcPWhkJzNW4-PjCDw-9" value="&lt;div style=&quot;color: rgb(216, 222, 233); font-family: Consolas, &amp;quot;Courier New&amp;quot;, monospace; font-size: 14px; line-height: 19px; white-space: pre;&quot;&gt;&lt;div style=&quot;line-height: 19px;&quot;&gt;&lt;div style=&quot;line-height: 19px;&quot;&gt;&lt;span&gt;&lt;span style=&quot;color: rgb(170, 155, 245);&quot;&gt;appKey&lt;/span&gt;&lt;span style=&quot;color: rgb(214, 214, 221);&quot;&gt;:&lt;/span&gt; &lt;span style=&quot;color: rgb(130, 210, 206);&quot;&gt;string&lt;/span&gt;&lt;/span&gt;&lt;/div&gt;&lt;/div&gt;&lt;/div&gt;" style="rounded=0;whiteSpace=wrap;html=1;fillColor=#f8cecc;strokeColor=#b85450;" parent="1" vertex="1">
          <mxGeometry x="660" y="350" width="140" height="30" as="geometry" />
        </mxCell>
        <mxCell id="b3RxcPWhkJzNW4-PjCDw-10" value="&lt;span style=&quot;color: rgba(0, 0, 0, 0); font-family: monospace; font-size: 0px; text-align: start;&quot;&gt;%3CmxGraphModel%3E%3Croot%3E%3CmxCell%20id%3D%220%22%2F%3E%3CmxCell%20id%3D%221%22%20parent%3D%220%22%2F%3E%3CmxCell%20id%3D%222%22%20value%3D%22%26lt%3Bdiv%20style%3D%26quot%3Bcolor%3A%20rgb(216%2C%20222%2C%20233)%3B%20background-color%3A%20rgb(26%2C%2026%2C%2026)%3B%20font-family%3A%20Consolas%2C%20%26amp%3Bquot%3BCourier%20New%26amp%3Bquot%3B%2C%20monospace%3B%20font-size%3A%2014px%3B%20line-height%3A%2019px%3B%20white-space%3A%20pre%3B%26quot%3B%26gt%3B%26lt%3Bspan%20style%3D%26quot%3Bcolor%3A%20%23aa9bf5%3B%26quot%3B%26gt%3Bctx%26lt%3B%2Fspan%26gt%3B%26lt%3Bspan%20style%3D%26quot%3Bcolor%3A%20%23d6d6dd%3B%26quot%3B%26gt%3B%3A%26lt%3B%2Fspan%26gt%3B%20%26lt%3Bspan%20style%3D%26quot%3Bcolor%3A%20%2387c3ff%3B%26quot%3B%26gt%3BWPS4Context%26lt%3B%2Fspan%26gt%3B%26lt%3B%2Fdiv%26gt%3B%22%20style%3D%22rounded%3D0%3BwhiteSpace%3Dwrap%3Bhtml%3D1%3BfillColor%3D%23f8cecc%3BstrokeColor%3D%23b85450%3B%22%20vertex%3D%221%22%20parent%3D%221%22%3E%3CmxGeometry%20x%3D%22280%22%20y%3D%22290%22%20width%3D%22120%22%20height%3D%2230%22%20as%3D%22geometry%22%2F%3E%3C%2FmxCell%3E%3C%2Froot%3E%3C%2FmxGraphModel%3E&lt;/span&gt;" style="text;html=1;align=center;verticalAlign=middle;resizable=0;points=[];autosize=1;strokeColor=none;fillColor=none;" parent="1" vertex="1">
          <mxGeometry x="725" y="360" width="20" height="30" as="geometry" />
        </mxCell>
        <mxCell id="b3RxcPWhkJzNW4-PjCDw-11" value="&lt;div style=&quot;font-family: Consolas, &amp;quot;Courier New&amp;quot;, monospace; font-weight: normal; font-size: 14px; line-height: 19px; white-space: pre;&quot;&gt;&lt;div style=&quot;&quot;&gt;&lt;div style=&quot;line-height: 19px;&quot;&gt;&lt;span style=&quot;font-style: italic;&quot;&gt;&lt;font style=&quot;color: rgb(255, 0, 0);&quot;&gt;WPS4服务上下文类&lt;/font&gt;&lt;/span&gt;&lt;/div&gt;&lt;/div&gt;&lt;/div&gt;" style="text;whiteSpace=wrap;html=1;" parent="1" vertex="1">
          <mxGeometry x="765" y="180" width="120" height="40" as="geometry" />
        </mxCell>
        <mxCell id="b3RxcPWhkJzNW4-PjCDw-12" value="ecisaccountsync\src\sdk\common\wps4\WPS4Context.ts" style="text;html=1;align=center;verticalAlign=middle;resizable=0;points=[];autosize=1;strokeColor=none;fillColor=none;" parent="1" vertex="1">
          <mxGeometry x="665" y="220" width="320" height="30" as="geometry" />
        </mxCell>
        <mxCell id="b3RxcPWhkJzNW4-PjCDw-13" value="&lt;div style=&quot;color: rgb(216, 222, 233); font-family: Consolas, &amp;quot;Courier New&amp;quot;, monospace; font-size: 14px; line-height: 19px; white-space: pre;&quot;&gt;&lt;div style=&quot;line-height: 19px;&quot;&gt;&lt;span&gt;&lt;span style=&quot;color: rgb(170, 155, 245);&quot;&gt;isMultiTenant&lt;/span&gt;&lt;span style=&quot;color: rgb(214, 214, 221);&quot;&gt;:&lt;/span&gt; &lt;span style=&quot;color: rgb(130, 210, 206);&quot;&gt;boolean&lt;/span&gt; &lt;/span&gt;&lt;/div&gt;&lt;/div&gt;" style="rounded=0;whiteSpace=wrap;html=1;fillColor=#f8cecc;strokeColor=#b85450;" parent="1" vertex="1">
          <mxGeometry x="800" y="350" width="190" height="30" as="geometry" />
        </mxCell>
        <mxCell id="b3RxcPWhkJzNW4-PjCDw-14" value="&lt;div style=&quot;color: rgb(216, 222, 233); font-family: Consolas, &amp;quot;Courier New&amp;quot;, monospace; font-size: 14px; line-height: 19px; white-space: pre;&quot;&gt;&lt;div style=&quot;line-height: 19px;&quot;&gt;&lt;span&gt;&lt;span style=&quot;color: rgb(170, 155, 245);&quot;&gt;appId&lt;/span&gt;&lt;span style=&quot;color: rgb(214, 214, 221);&quot;&gt;:&lt;/span&gt; &lt;span style=&quot;color: rgb(130, 210, 206);&quot;&gt;string&lt;/span&gt;&lt;/span&gt;&lt;/div&gt;&lt;/div&gt;" style="rounded=0;whiteSpace=wrap;html=1;fillColor=#f8cecc;strokeColor=#b85450;" parent="1" vertex="1">
          <mxGeometry x="840" y="300" width="150" height="30" as="geometry" />
        </mxCell>
        <mxCell id="b3RxcPWhkJzNW4-PjCDw-15" value="&lt;div style=&quot;color: rgb(216, 222, 233); font-family: Consolas, &amp;quot;Courier New&amp;quot;, monospace; font-size: 14px; line-height: 19px; white-space: pre;&quot;&gt;&lt;div style=&quot;line-height: 19px;&quot;&gt;&lt;div style=&quot;line-height: 19px;&quot;&gt;&lt;span&gt;&lt;span style=&quot;color: rgb(170, 155, 245);&quot;&gt;defaultHeaders&lt;/span&gt;&lt;span style=&quot;color: rgb(214, 214, 221);&quot;&gt;:&lt;/span&gt; { &lt;span style=&quot;color: rgb(214, 214, 221);&quot;&gt;[&lt;/span&gt;&lt;span style=&quot;color: rgb(214, 214, 221); font-style: italic;&quot;&gt;key&lt;/span&gt;&lt;span style=&quot;color: rgb(214, 214, 221);&quot;&gt;:&lt;/span&gt; &lt;span style=&quot;color: rgb(130, 210, 206);&quot;&gt;string&lt;/span&gt;&lt;span style=&quot;color: rgb(214, 214, 221);&quot;&gt;]:&lt;/span&gt; &lt;span style=&quot;color: rgb(130, 210, 206);&quot;&gt;string&lt;/span&gt; }&lt;/span&gt;&lt;/div&gt;&lt;/div&gt;&lt;/div&gt;" style="rounded=0;whiteSpace=wrap;html=1;fillColor=#f8cecc;strokeColor=#b85450;" parent="1" vertex="1">
          <mxGeometry x="660" y="400" width="330" height="30" as="geometry" />
        </mxCell>
        <mxCell id="b3RxcPWhkJzNW4-PjCDw-16" value="&lt;div style=&quot;color: rgb(216, 222, 233); font-family: Consolas, &amp;quot;Courier New&amp;quot;, monospace; font-size: 14px; line-height: 19px; white-space: pre;&quot;&gt;&lt;div style=&quot;line-height: 19px;&quot;&gt;&lt;div style=&quot;line-height: 19px;&quot;&gt;&lt;div style=&quot;line-height: 19px;&quot;&gt;&lt;span style=&quot;color: rgb(130, 210, 206);&quot;&gt;constructor&lt;/span&gt;&lt;/div&gt;&lt;/div&gt;&lt;/div&gt;&lt;/div&gt;" style="rounded=0;whiteSpace=wrap;html=1;fillColor=#f8cecc;strokeColor=#b85450;" parent="1" vertex="1">
          <mxGeometry x="660" y="450" width="333" height="30" as="geometry" />
        </mxCell>
        <mxCell id="b3RxcPWhkJzNW4-PjCDw-17" value="&lt;div style=&quot;color: rgb(216, 222, 233); font-family: Consolas, &amp;quot;Courier New&amp;quot;, monospace; font-size: 14px; line-height: 19px; white-space: pre;&quot;&gt;&lt;div style=&quot;line-height: 19px;&quot;&gt;&lt;div style=&quot;line-height: 19px;&quot;&gt;&lt;div style=&quot;line-height: 19px;&quot;&gt;&lt;span style=&quot;color: rgb(239, 176, 128); font-weight: bold;&quot;&gt;sha1&lt;/span&gt;&lt;/div&gt;&lt;/div&gt;&lt;/div&gt;&lt;/div&gt;" style="rounded=0;whiteSpace=wrap;html=1;fillColor=#f8cecc;strokeColor=#b85450;" parent="1" vertex="1">
          <mxGeometry x="720" y="500" width="70" height="30" as="geometry" />
        </mxCell>
        <mxCell id="b3RxcPWhkJzNW4-PjCDw-18" value="&lt;div style=&quot;color: rgb(216, 222, 233); font-family: Consolas, &amp;quot;Courier New&amp;quot;, monospace; font-size: 14px; line-height: 19px; white-space: pre;&quot;&gt;&lt;div style=&quot;line-height: 19px;&quot;&gt;&lt;div style=&quot;line-height: 19px;&quot;&gt;&lt;span style=&quot;color: rgb(239, 176, 128); font-weight: bold;&quot;&gt;abs&lt;/span&gt;&lt;/div&gt;&lt;/div&gt;&lt;/div&gt;" style="rounded=0;whiteSpace=wrap;html=1;fillColor=#f8cecc;strokeColor=#b85450;" parent="1" vertex="1">
          <mxGeometry x="660" y="500" width="60" height="30" as="geometry" />
        </mxCell>
        <mxCell id="b3RxcPWhkJzNW4-PjCDw-19" value="&lt;div style=&quot;color: rgb(216, 222, 233); font-family: Consolas, &amp;quot;Courier New&amp;quot;, monospace; font-size: 14px; line-height: 19px; white-space: pre;&quot;&gt;&lt;div style=&quot;line-height: 19px;&quot;&gt;&lt;div style=&quot;line-height: 19px;&quot;&gt;&lt;div style=&quot;line-height: 19px;&quot;&gt;&lt;span style=&quot;color: rgb(239, 176, 128); font-weight: bold;&quot;&gt;sha256&lt;/span&gt;&lt;/div&gt;&lt;/div&gt;&lt;/div&gt;&lt;/div&gt;" style="rounded=0;whiteSpace=wrap;html=1;fillColor=#f8cecc;strokeColor=#b85450;" parent="1" vertex="1">
          <mxGeometry x="790" y="500" width="70" height="30" as="geometry" />
        </mxCell>
        <mxCell id="b3RxcPWhkJzNW4-PjCDw-20" value="&lt;div style=&quot;color: rgb(216, 222, 233); font-family: Consolas, &amp;quot;Courier New&amp;quot;, monospace; font-size: 14px; line-height: 19px; white-space: pre;&quot;&gt;&lt;div style=&quot;line-height: 19px;&quot;&gt;&lt;div style=&quot;line-height: 19px;&quot;&gt;&lt;div style=&quot;line-height: 19px;&quot;&gt;&lt;span style=&quot;color: rgb(239, 176, 128); font-weight: bold;&quot;&gt;hmacSha256&lt;/span&gt;&lt;/div&gt;&lt;/div&gt;&lt;/div&gt;&lt;/div&gt;" style="rounded=0;whiteSpace=wrap;html=1;fillColor=#f8cecc;strokeColor=#b85450;" parent="1" vertex="1">
          <mxGeometry x="853" y="500" width="97" height="30" as="geometry" />
        </mxCell>
        <mxCell id="b3RxcPWhkJzNW4-PjCDw-21" value="&lt;div style=&quot;color: rgb(216, 222, 233); font-family: Consolas, &amp;quot;Courier New&amp;quot;, monospace; font-size: 14px; line-height: 19px; white-space: pre;&quot;&gt;&lt;div style=&quot;line-height: 19px;&quot;&gt;&lt;div style=&quot;line-height: 19px;&quot;&gt;&lt;div style=&quot;line-height: 19px;&quot;&gt;&lt;span style=&quot;color: rgb(239, 176, 128); font-weight: bold;&quot;&gt;md5&lt;/span&gt;&lt;/div&gt;&lt;/div&gt;&lt;/div&gt;&lt;/div&gt;" style="rounded=0;whiteSpace=wrap;html=1;fillColor=#f8cecc;strokeColor=#b85450;" parent="1" vertex="1">
          <mxGeometry x="950" y="500" width="43" height="30" as="geometry" />
        </mxCell>
        <mxCell id="b3RxcPWhkJzNW4-PjCDw-23" value="" style="endArrow=none;dashed=1;html=1;rounded=0;exitX=1;exitY=0.5;exitDx=0;exitDy=0;entryX=0.002;entryY=0.177;entryDx=0;entryDy=0;entryPerimeter=0;" parent="1" source="b3RxcPWhkJzNW4-PjCDw-2" target="b3RxcPWhkJzNW4-PjCDw-7" edge="1">
          <mxGeometry width="50" height="50" relative="1" as="geometry">
            <mxPoint x="500" y="360" as="sourcePoint" />
            <mxPoint x="640" y="310" as="targetPoint" />
          </mxGeometry>
        </mxCell>
        <mxCell id="Fg0jXLRF8ofKdvB1S5mG-1" value="" style="rounded=1;whiteSpace=wrap;html=1;fillColor=#f8cecc;strokeColor=#b85450;opacity=80;" vertex="1" parent="1">
          <mxGeometry x="1305" y="265" width="190" height="255" as="geometry" />
        </mxCell>
        <mxCell id="Fg0jXLRF8ofKdvB1S5mG-2" value="&lt;div style=&quot;color: rgb(216, 222, 233); font-family: Consolas, &amp;quot;Courier New&amp;quot;, monospace; font-size: 14px; line-height: 19px; white-space: pre;&quot;&gt;&lt;span&gt;&lt;span style=&quot;color: rgb(170, 155, 245);&quot;&gt;ctx&lt;/span&gt;&lt;span style=&quot;color: rgb(214, 214, 221);&quot;&gt;:&lt;/span&gt; &lt;span style=&quot;color: rgb(135, 195, 255);&quot;&gt;WPS4Context&lt;/span&gt;&lt;/span&gt;&lt;/div&gt;" style="rounded=0;whiteSpace=wrap;html=1;fillColor=#f8cecc;strokeColor=#b85450;" vertex="1" parent="1">
          <mxGeometry x="1329" y="305" width="140" height="30" as="geometry" />
        </mxCell>
        <mxCell id="Fg0jXLRF8ofKdvB1S5mG-3" value="&lt;div style=&quot;color: rgb(216, 222, 233); font-family: Consolas, &amp;quot;Courier New&amp;quot;, monospace; font-size: 14px; line-height: 19px; white-space: pre;&quot;&gt;&lt;div style=&quot;line-height: 19px;&quot;&gt;&lt;span&gt;&lt;span style=&quot;color: rgb(239, 176, 128); font-weight: bold;&quot;&gt;init&lt;/span&gt;()&lt;/span&gt;&lt;/div&gt;&lt;/div&gt;" style="rounded=0;whiteSpace=wrap;html=1;fillColor=#f8cecc;strokeColor=#b85450;" vertex="1" parent="1">
          <mxGeometry x="1329" y="355" width="140" height="30" as="geometry" />
        </mxCell>
        <mxCell id="Fg0jXLRF8ofKdvB1S5mG-4" value="&lt;span style=&quot;color: rgba(0, 0, 0, 0); font-family: monospace; font-size: 0px; text-align: start;&quot;&gt;%3CmxGraphModel%3E%3Croot%3E%3CmxCell%20id%3D%220%22%2F%3E%3CmxCell%20id%3D%221%22%20parent%3D%220%22%2F%3E%3CmxCell%20id%3D%222%22%20value%3D%22%26lt%3Bdiv%20style%3D%26quot%3Bcolor%3A%20rgb(216%2C%20222%2C%20233)%3B%20background-color%3A%20rgb(26%2C%2026%2C%2026)%3B%20font-family%3A%20Consolas%2C%20%26amp%3Bquot%3BCourier%20New%26amp%3Bquot%3B%2C%20monospace%3B%20font-size%3A%2014px%3B%20line-height%3A%2019px%3B%20white-space%3A%20pre%3B%26quot%3B%26gt%3B%26lt%3Bspan%20style%3D%26quot%3Bcolor%3A%20%23aa9bf5%3B%26quot%3B%26gt%3Bctx%26lt%3B%2Fspan%26gt%3B%26lt%3Bspan%20style%3D%26quot%3Bcolor%3A%20%23d6d6dd%3B%26quot%3B%26gt%3B%3A%26lt%3B%2Fspan%26gt%3B%20%26lt%3Bspan%20style%3D%26quot%3Bcolor%3A%20%2387c3ff%3B%26quot%3B%26gt%3BWPS4Context%26lt%3B%2Fspan%26gt%3B%26lt%3B%2Fdiv%26gt%3B%22%20style%3D%22rounded%3D0%3BwhiteSpace%3Dwrap%3Bhtml%3D1%3BfillColor%3D%23f8cecc%3BstrokeColor%3D%23b85450%3B%22%20vertex%3D%221%22%20parent%3D%221%22%3E%3CmxGeometry%20x%3D%22280%22%20y%3D%22290%22%20width%3D%22120%22%20height%3D%2230%22%20as%3D%22geometry%22%2F%3E%3C%2FmxCell%3E%3C%2Froot%3E%3C%2FmxGraphModel%3E&lt;/span&gt;" style="text;html=1;align=center;verticalAlign=middle;resizable=0;points=[];autosize=1;strokeColor=none;fillColor=none;" vertex="1" parent="1">
          <mxGeometry x="1375" y="365" width="20" height="30" as="geometry" />
        </mxCell>
        <mxCell id="Fg0jXLRF8ofKdvB1S5mG-5" value="&lt;div style=&quot;font-family: Consolas, &amp;quot;Courier New&amp;quot;, monospace; font-weight: normal; font-size: 14px; line-height: 19px; white-space: pre;&quot;&gt;&lt;div style=&quot;&quot;&gt;&lt;span style=&quot;font-style: italic;&quot;&gt;&lt;font style=&quot;color: rgb(255, 0, 0);&quot;&gt;WPS4服务客户端单例&lt;/font&gt;&lt;/span&gt;&lt;/div&gt;&lt;/div&gt;" style="text;whiteSpace=wrap;html=1;" vertex="1" parent="1">
          <mxGeometry x="1329" y="193" width="120" height="40" as="geometry" />
        </mxCell>
        <mxCell id="Fg0jXLRF8ofKdvB1S5mG-6" value="ecisaccountsync\src\common\docmini.ts" style="text;html=1;align=center;verticalAlign=middle;resizable=0;points=[];autosize=1;strokeColor=none;fillColor=none;" vertex="1" parent="1">
          <mxGeometry x="1280" y="233" width="240" height="30" as="geometry" />
        </mxCell>
        <mxCell id="Fg0jXLRF8ofKdvB1S5mG-7" value="&lt;div style=&quot;color: rgb(216, 222, 233); font-family: Consolas, &amp;quot;Courier New&amp;quot;, monospace; font-size: 14px; line-height: 19px; white-space: pre;&quot;&gt;&lt;div style=&quot;line-height: 19px;&quot;&gt;&lt;div style=&quot;line-height: 19px;&quot;&gt;&lt;span style=&quot;color: rgb(239, 176, 128); font-weight: bold;&quot;&gt;getCurrentUser&lt;/span&gt;&lt;/div&gt;&lt;/div&gt;&lt;/div&gt;" style="rounded=0;whiteSpace=wrap;html=1;fillColor=#f8cecc;strokeColor=#b85450;" vertex="1" parent="1">
          <mxGeometry x="1330" y="395" width="140" height="30" as="geometry" />
        </mxCell>
        <mxCell id="Fg0jXLRF8ofKdvB1S5mG-8" value="&lt;div style=&quot;color: rgb(216, 222, 233); font-family: Consolas, &amp;quot;Courier New&amp;quot;, monospace; font-size: 14px; line-height: 19px; white-space: pre;&quot;&gt;&lt;div style=&quot;line-height: 19px;&quot;&gt;&lt;div style=&quot;line-height: 19px;&quot;&gt;&lt;span style=&quot;color: rgb(239, 176, 128); font-weight: bold; background-color: light-dark(#ffffff, var(--ge-dark-color, #121212));&quot;&gt;checkCurren&lt;/span&gt;&lt;/div&gt;&lt;div style=&quot;line-height: 19px;&quot;&gt;&lt;span style=&quot;color: rgb(239, 176, 128); font-weight: bold; background-color: light-dark(#ffffff, var(--ge-dark-color, #121212));&quot;&gt;tUserRolePermission&lt;/span&gt;&lt;/div&gt;&lt;/div&gt;&lt;/div&gt;" style="rounded=0;whiteSpace=wrap;html=1;fillColor=#f8cecc;strokeColor=#b85450;" vertex="1" parent="1">
          <mxGeometry x="1330" y="430" width="140" height="40" as="geometry" />
        </mxCell>
        <mxCell id="Fg0jXLRF8ofKdvB1S5mG-9" value="&lt;div style=&quot;color: rgb(216, 222, 233); font-family: Consolas, &amp;quot;Courier New&amp;quot;, monospace; font-size: 14px; line-height: 19px; white-space: pre;&quot;&gt;&lt;div style=&quot;line-height: 19px;&quot;&gt;&lt;div style=&quot;line-height: 19px;&quot;&gt;&lt;span style=&quot;color: rgb(239, 176, 128); font-weight: bold;&quot;&gt;auditLogsWrite&lt;/span&gt;&lt;/div&gt;&lt;/div&gt;&lt;/div&gt;" style="rounded=0;whiteSpace=wrap;html=1;fillColor=#f8cecc;strokeColor=#b85450;" vertex="1" parent="1">
          <mxGeometry x="1330" y="480" width="140" height="30" as="geometry" />
        </mxCell>
        <mxCell id="Fg0jXLRF8ofKdvB1S5mG-12" value="" style="endArrow=none;dashed=1;html=1;rounded=0;entryX=0;entryY=0.5;entryDx=0;entryDy=0;exitX=1.002;exitY=0.225;exitDx=0;exitDy=0;exitPerimeter=0;" edge="1" parent="1" source="b3RxcPWhkJzNW4-PjCDw-7" target="Fg0jXLRF8ofKdvB1S5mG-2">
          <mxGeometry width="50" height="50" relative="1" as="geometry">
            <mxPoint x="1170" y="370" as="sourcePoint" />
            <mxPoint x="1220" y="320" as="targetPoint" />
          </mxGeometry>
        </mxCell>
        <mxCell id="Fg0jXLRF8ofKdvB1S5mG-13" value="定义了所以配置的一个接口和const变量" style="rounded=1;whiteSpace=wrap;html=1;fillColor=#f8cecc;strokeColor=#b85450;opacity=80;" vertex="1" parent="1">
          <mxGeometry x="220" y="730" width="260" height="70" as="geometry" />
        </mxCell>
        <mxCell id="Fg0jXLRF8ofKdvB1S5mG-16" value="&lt;span style=&quot;color: rgba(0, 0, 0, 0); font-family: monospace; font-size: 0px; text-align: start;&quot;&gt;%3CmxGraphModel%3E%3Croot%3E%3CmxCell%20id%3D%220%22%2F%3E%3CmxCell%20id%3D%221%22%20parent%3D%220%22%2F%3E%3CmxCell%20id%3D%222%22%20value%3D%22%26lt%3Bdiv%20style%3D%26quot%3Bcolor%3A%20rgb(216%2C%20222%2C%20233)%3B%20background-color%3A%20rgb(26%2C%2026%2C%2026)%3B%20font-family%3A%20Consolas%2C%20%26amp%3Bquot%3BCourier%20New%26amp%3Bquot%3B%2C%20monospace%3B%20font-size%3A%2014px%3B%20line-height%3A%2019px%3B%20white-space%3A%20pre%3B%26quot%3B%26gt%3B%26lt%3Bspan%20style%3D%26quot%3Bcolor%3A%20%23aa9bf5%3B%26quot%3B%26gt%3Bctx%26lt%3B%2Fspan%26gt%3B%26lt%3Bspan%20style%3D%26quot%3Bcolor%3A%20%23d6d6dd%3B%26quot%3B%26gt%3B%3A%26lt%3B%2Fspan%26gt%3B%20%26lt%3Bspan%20style%3D%26quot%3Bcolor%3A%20%2387c3ff%3B%26quot%3B%26gt%3BWPS4Context%26lt%3B%2Fspan%26gt%3B%26lt%3B%2Fdiv%26gt%3B%22%20style%3D%22rounded%3D0%3BwhiteSpace%3Dwrap%3Bhtml%3D1%3BfillColor%3D%23f8cecc%3BstrokeColor%3D%23b85450%3B%22%20vertex%3D%221%22%20parent%3D%221%22%3E%3CmxGeometry%20x%3D%22280%22%20y%3D%22290%22%20width%3D%22120%22%20height%3D%2230%22%20as%3D%22geometry%22%2F%3E%3C%2FmxCell%3E%3C%2Froot%3E%3C%2FmxGraphModel%3E&lt;/span&gt;" style="text;html=1;align=center;verticalAlign=middle;resizable=0;points=[];autosize=1;strokeColor=none;fillColor=none;" vertex="1" parent="1">
          <mxGeometry x="320" y="820" width="20" height="30" as="geometry" />
        </mxCell>
        <mxCell id="Fg0jXLRF8ofKdvB1S5mG-17" value="&lt;div style=&quot;font-family: Consolas, &amp;quot;Courier New&amp;quot;, monospace; font-weight: normal; font-size: 14px; line-height: 19px; white-space: pre;&quot;&gt;&lt;div style=&quot;&quot;&gt;&lt;div style=&quot;line-height: 19px;&quot;&gt;&lt;span style=&quot;font-style: italic;&quot;&gt;&lt;font style=&quot;color: rgb(255, 0, 0);&quot;&gt;配置变量接口&lt;/font&gt;&lt;/span&gt;&lt;/div&gt;&lt;/div&gt;&lt;/div&gt;" style="text;whiteSpace=wrap;html=1;" vertex="1" parent="1">
          <mxGeometry x="284" y="648" width="120" height="40" as="geometry" />
        </mxCell>
        <mxCell id="Fg0jXLRF8ofKdvB1S5mG-18" value="ecisaccountsync\src\common\config.ts" style="text;html=1;align=center;verticalAlign=middle;resizable=0;points=[];autosize=1;strokeColor=none;fillColor=none;" vertex="1" parent="1">
          <mxGeometry x="230" y="688" width="230" height="30" as="geometry" />
        </mxCell>
        <mxCell id="Fg0jXLRF8ofKdvB1S5mG-20" value="日志的配置和初始化" style="rounded=1;whiteSpace=wrap;html=1;fillColor=#f8cecc;strokeColor=#b85450;opacity=80;" vertex="1" parent="1">
          <mxGeometry x="580" y="730" width="170" height="70" as="geometry" />
        </mxCell>
        <mxCell id="Fg0jXLRF8ofKdvB1S5mG-21" value="&lt;div style=&quot;font-family: Consolas, &amp;quot;Courier New&amp;quot;, monospace; font-weight: normal; font-size: 14px; line-height: 19px; white-space: pre;&quot;&gt;&lt;div style=&quot;&quot;&gt;&lt;div style=&quot;line-height: 19px;&quot;&gt;&lt;span style=&quot;font-style: italic;&quot;&gt;&lt;font style=&quot;color: rgb(255, 0, 0);&quot;&gt;日志配置接口&lt;/font&gt;&lt;/span&gt;&lt;/div&gt;&lt;/div&gt;&lt;/div&gt;" style="text;whiteSpace=wrap;html=1;" vertex="1" parent="1">
          <mxGeometry x="604" y="648" width="120" height="40" as="geometry" />
        </mxCell>
        <mxCell id="Fg0jXLRF8ofKdvB1S5mG-22" value="ecisaccountsync\src\common\logger.ts" style="text;html=1;align=center;verticalAlign=middle;resizable=0;points=[];autosize=1;strokeColor=none;fillColor=none;" vertex="1" parent="1">
          <mxGeometry x="550" y="688" width="230" height="30" as="geometry" />
        </mxCell>
        <mxCell id="Fg0jXLRF8ofKdvB1S5mG-23" value="定义了各种全局的接口和类型" style="rounded=1;whiteSpace=wrap;html=1;fillColor=#f8cecc;strokeColor=#b85450;opacity=80;" vertex="1" parent="1">
          <mxGeometry x="230" y="922" width="260" height="70" as="geometry" />
        </mxCell>
        <mxCell id="Fg0jXLRF8ofKdvB1S5mG-24" value="&lt;div style=&quot;font-family: Consolas, &amp;quot;Courier New&amp;quot;, monospace; font-weight: normal; font-size: 14px; line-height: 19px; white-space: pre;&quot;&gt;&lt;div style=&quot;&quot;&gt;&lt;div style=&quot;line-height: 19px;&quot;&gt;&lt;span style=&quot;font-style: italic;&quot;&gt;&lt;font style=&quot;color: rgb(255, 0, 0);&quot;&gt;全局接口类型&lt;/font&gt;&lt;/span&gt;&lt;/div&gt;&lt;/div&gt;&lt;/div&gt;" style="text;whiteSpace=wrap;html=1;" vertex="1" parent="1">
          <mxGeometry x="294" y="840" width="120" height="40" as="geometry" />
        </mxCell>
        <mxCell id="Fg0jXLRF8ofKdvB1S5mG-25" value="ecisaccountsync\src\common\type.ts" style="text;html=1;align=center;verticalAlign=middle;resizable=0;points=[];autosize=1;strokeColor=none;fillColor=none;" vertex="1" parent="1">
          <mxGeometry x="245" y="880" width="220" height="30" as="geometry" />
        </mxCell>
        <mxCell id="Fg0jXLRF8ofKdvB1S5mG-26" value="&lt;span style=&quot;color: rgba(0, 0, 0, 0); font-family: monospace; font-size: 0px; text-align: start;&quot;&gt;%3CmxGraphModel%3E%3Croot%3E%3CmxCell%20id%3D%220%22%2F%3E%3CmxCell%20id%3D%221%22%20parent%3D%220%22%2F%3E%3CmxCell%20id%3D%222%22%20value%3D%22%26lt%3Bdiv%20style%3D%26quot%3Bcolor%3A%20rgb(216%2C%20222%2C%20233)%3B%20background-color%3A%20rgb(26%2C%2026%2C%2026)%3B%20font-family%3A%20Consolas%2C%20%26amp%3Bquot%3BCourier%20New%26amp%3Bquot%3B%2C%20monospace%3B%20font-size%3A%2014px%3B%20line-height%3A%2019px%3B%20white-space%3A%20pre%3B%26quot%3B%26gt%3B%26lt%3Bspan%20style%3D%26quot%3Bcolor%3A%20%23aa9bf5%3B%26quot%3B%26gt%3Bctx%26lt%3B%2Fspan%26gt%3B%26lt%3Bspan%20style%3D%26quot%3Bcolor%3A%20%23d6d6dd%3B%26quot%3B%26gt%3B%3A%26lt%3B%2Fspan%26gt%3B%20%26lt%3Bspan%20style%3D%26quot%3Bcolor%3A%20%2387c3ff%3B%26quot%3B%26gt%3BWPS4Context%26lt%3B%2Fspan%26gt%3B%26lt%3B%2Fdiv%26gt%3B%22%20style%3D%22rounded%3D0%3BwhiteSpace%3Dwrap%3Bhtml%3D1%3BfillColor%3D%23f8cecc%3BstrokeColor%3D%23b85450%3B%22%20vertex%3D%221%22%20parent%3D%221%22%3E%3CmxGeometry%20x%3D%22280%22%20y%3D%22290%22%20width%3D%22120%22%20height%3D%2230%22%20as%3D%22geometry%22%2F%3E%3C%2FmxCell%3E%3C%2Froot%3E%3C%2FmxGraphModel%3E&lt;/span&gt;" style="text;html=1;align=center;verticalAlign=middle;resizable=0;points=[];autosize=1;strokeColor=none;fillColor=none;" vertex="1" parent="1">
          <mxGeometry x="649" y="830" width="20" height="30" as="geometry" />
        </mxCell>
        <mxCell id="Fg0jXLRF8ofKdvB1S5mG-27" value="定义了各种全局的工具函数" style="rounded=1;whiteSpace=wrap;html=1;fillColor=#f8cecc;strokeColor=#b85450;opacity=80;" vertex="1" parent="1">
          <mxGeometry x="559" y="932" width="260" height="70" as="geometry" />
        </mxCell>
        <mxCell id="Fg0jXLRF8ofKdvB1S5mG-28" value="&lt;div style=&quot;font-family: Consolas, &amp;quot;Courier New&amp;quot;, monospace; font-weight: normal; font-size: 14px; line-height: 19px; white-space: pre;&quot;&gt;&lt;div style=&quot;&quot;&gt;&lt;div style=&quot;line-height: 19px;&quot;&gt;&lt;span style=&quot;font-style: italic;&quot;&gt;&lt;font style=&quot;color: rgb(255, 0, 0);&quot;&gt;全局工具函数&lt;/font&gt;&lt;/span&gt;&lt;/div&gt;&lt;/div&gt;&lt;/div&gt;" style="text;whiteSpace=wrap;html=1;" vertex="1" parent="1">
          <mxGeometry x="623" y="850" width="120" height="40" as="geometry" />
        </mxCell>
        <mxCell id="Fg0jXLRF8ofKdvB1S5mG-29" value="ecisaccountsync\src\common\util.ts" style="text;html=1;align=center;verticalAlign=middle;resizable=0;points=[];autosize=1;strokeColor=none;fillColor=none;" vertex="1" parent="1">
          <mxGeometry x="579" y="890" width="210" height="30" as="geometry" />
        </mxCell>
        <mxCell id="Fg0jXLRF8ofKdvB1S5mG-30" value="" style="rounded=1;whiteSpace=wrap;html=1;fillColor=#f8cecc;strokeColor=#b85450;opacity=80;" vertex="1" parent="1">
          <mxGeometry x="259" y="1230" width="301" height="280" as="geometry" />
        </mxCell>
        <mxCell id="Fg0jXLRF8ofKdvB1S5mG-31" value="&lt;div style=&quot;color: rgb(216, 222, 233); font-family: Consolas, &amp;quot;Courier New&amp;quot;, monospace; font-size: 14px; line-height: 19px; white-space: pre;&quot;&gt;&lt;div style=&quot;line-height: 19px;&quot;&gt;&lt;span&gt;&lt;span style=&quot;color: rgb(170, 155, 245);&quot;&gt;count&lt;/span&gt;&lt;span style=&quot;color: rgb(214, 214, 221);&quot;&gt;:&lt;/span&gt; &lt;span style=&quot;color: rgb(130, 210, 206);&quot;&gt;number&lt;/span&gt;&lt;/span&gt;&lt;/div&gt;&lt;/div&gt;" style="rounded=0;whiteSpace=wrap;html=1;fillColor=#f8cecc;strokeColor=#b85450;" vertex="1" parent="1">
          <mxGeometry x="280" y="1290" width="110" height="30" as="geometry" />
        </mxCell>
        <mxCell id="Fg0jXLRF8ofKdvB1S5mG-32" value="&lt;div style=&quot;color: rgb(216, 222, 233); font-family: Consolas, &amp;quot;Courier New&amp;quot;, monospace; font-size: 14px; line-height: 19px; white-space: pre;&quot;&gt;&lt;div style=&quot;line-height: 19px;&quot;&gt;&lt;div style=&quot;line-height: 19px;&quot;&gt;&lt;span&gt;&lt;span style=&quot;color: rgb(170, 155, 245);&quot;&gt;resolveFunc&lt;/span&gt;&lt;span style=&quot;color: rgb(214, 214, 221);&quot;&gt;:&lt;/span&gt; &lt;span style=&quot;color: rgb(130, 210, 206);&quot;&gt;any&lt;/span&gt;&lt;/span&gt;&lt;/div&gt;&lt;/div&gt;&lt;/div&gt;" style="rounded=0;whiteSpace=wrap;html=1;fillColor=#f8cecc;strokeColor=#b85450;" vertex="1" parent="1">
          <mxGeometry x="400" y="1290" width="140" height="30" as="geometry" />
        </mxCell>
        <mxCell id="Fg0jXLRF8ofKdvB1S5mG-33" value="&lt;span style=&quot;color: rgba(0, 0, 0, 0); font-family: monospace; font-size: 0px; text-align: start;&quot;&gt;%3CmxGraphModel%3E%3Croot%3E%3CmxCell%20id%3D%220%22%2F%3E%3CmxCell%20id%3D%221%22%20parent%3D%220%22%2F%3E%3CmxCell%20id%3D%222%22%20value%3D%22%26lt%3Bdiv%20style%3D%26quot%3Bcolor%3A%20rgb(216%2C%20222%2C%20233)%3B%20background-color%3A%20rgb(26%2C%2026%2C%2026)%3B%20font-family%3A%20Consolas%2C%20%26amp%3Bquot%3BCourier%20New%26amp%3Bquot%3B%2C%20monospace%3B%20font-size%3A%2014px%3B%20line-height%3A%2019px%3B%20white-space%3A%20pre%3B%26quot%3B%26gt%3B%26lt%3Bspan%20style%3D%26quot%3Bcolor%3A%20%23aa9bf5%3B%26quot%3B%26gt%3Bctx%26lt%3B%2Fspan%26gt%3B%26lt%3Bspan%20style%3D%26quot%3Bcolor%3A%20%23d6d6dd%3B%26quot%3B%26gt%3B%3A%26lt%3B%2Fspan%26gt%3B%20%26lt%3Bspan%20style%3D%26quot%3Bcolor%3A%20%2387c3ff%3B%26quot%3B%26gt%3BWPS4Context%26lt%3B%2Fspan%26gt%3B%26lt%3B%2Fdiv%26gt%3B%22%20style%3D%22rounded%3D0%3BwhiteSpace%3Dwrap%3Bhtml%3D1%3BfillColor%3D%23f8cecc%3BstrokeColor%3D%23b85450%3B%22%20vertex%3D%221%22%20parent%3D%221%22%3E%3CmxGeometry%20x%3D%22280%22%20y%3D%22290%22%20width%3D%22120%22%20height%3D%2230%22%20as%3D%22geometry%22%2F%3E%3C%2FmxCell%3E%3C%2Froot%3E%3C%2FmxGraphModel%3E&lt;/span&gt;" style="text;html=1;align=center;verticalAlign=middle;resizable=0;points=[];autosize=1;strokeColor=none;fillColor=none;" vertex="1" parent="1">
          <mxGeometry x="329" y="1330" width="20" height="30" as="geometry" />
        </mxCell>
        <mxCell id="Fg0jXLRF8ofKdvB1S5mG-34" value="&lt;div style=&quot;font-family: Consolas, &amp;quot;Courier New&amp;quot;, monospace; font-weight: normal; font-size: 14px; line-height: 19px; white-space: pre;&quot;&gt;&lt;div style=&quot;&quot;&gt;&lt;div style=&quot;line-height: 19px;&quot;&gt;&lt;span style=&quot;font-style: italic;&quot;&gt;&lt;font style=&quot;color: rgb(255, 0, 0);&quot;&gt;倒计时锁存器类&lt;/font&gt;&lt;/span&gt;&lt;/div&gt;&lt;/div&gt;&lt;/div&gt;" style="text;whiteSpace=wrap;html=1;" vertex="1" parent="1">
          <mxGeometry x="360" y="1158" width="120" height="40" as="geometry" />
        </mxCell>
        <mxCell id="Fg0jXLRF8ofKdvB1S5mG-35" value="ecisaccountsync\src\common\CountDownLatch.ts" style="text;html=1;align=center;verticalAlign=middle;resizable=0;points=[];autosize=1;strokeColor=none;fillColor=none;" vertex="1" parent="1">
          <mxGeometry x="250" y="1198" width="290" height="30" as="geometry" />
        </mxCell>
        <mxCell id="Fg0jXLRF8ofKdvB1S5mG-36" value="&lt;div style=&quot;color: rgb(216, 222, 233); font-family: Consolas, &amp;quot;Courier New&amp;quot;, monospace; font-size: 14px; line-height: 19px; white-space: pre;&quot;&gt;&lt;div style=&quot;line-height: 19px;&quot;&gt;&lt;div style=&quot;line-height: 19px;&quot;&gt;&lt;div style=&quot;line-height: 19px;&quot;&gt;&lt;span&gt;&lt;span style=&quot;color: rgb(170, 155, 245);&quot;&gt;promise&lt;/span&gt;&lt;span style=&quot;color: rgb(214, 214, 221);&quot;&gt;:&lt;/span&gt; &lt;span style=&quot;color: rgb(135, 195, 255);&quot;&gt;Promise&lt;/span&gt;&amp;lt;&lt;span style=&quot;color: rgb(130, 210, 206);&quot;&gt;unknown&lt;/span&gt;&amp;gt;&lt;/span&gt;&lt;/div&gt;&lt;/div&gt;&lt;/div&gt;&lt;/div&gt;" style="rounded=0;whiteSpace=wrap;html=1;fillColor=#f8cecc;strokeColor=#b85450;" vertex="1" parent="1">
          <mxGeometry x="280" y="1330" width="260" height="30" as="geometry" />
        </mxCell>
        <mxCell id="Fg0jXLRF8ofKdvB1S5mG-37" value="&lt;div style=&quot;color: rgb(216, 222, 233); font-family: Consolas, &amp;quot;Courier New&amp;quot;, monospace; font-size: 14px; line-height: 19px; white-space: pre;&quot;&gt;&lt;div style=&quot;line-height: 19px;&quot;&gt;&lt;div style=&quot;line-height: 19px;&quot;&gt;&lt;div style=&quot;line-height: 19px;&quot;&gt;&lt;div style=&quot;line-height: 19px;&quot;&gt;&lt;span style=&quot;color: rgb(130, 210, 206);&quot;&gt;constructor&lt;/span&gt;&lt;/div&gt;&lt;/div&gt;&lt;/div&gt;&lt;/div&gt;&lt;/div&gt;" style="rounded=0;whiteSpace=wrap;html=1;fillColor=#f8cecc;strokeColor=#b85450;" vertex="1" parent="1">
          <mxGeometry x="280" y="1370" width="260" height="30" as="geometry" />
        </mxCell>
        <mxCell id="Fg0jXLRF8ofKdvB1S5mG-38" value="&lt;div style=&quot;color: rgb(216, 222, 233); font-family: Consolas, &amp;quot;Courier New&amp;quot;, monospace; font-weight: normal; font-size: 14px; line-height: 19px; white-space: pre;&quot;&gt;&lt;div style=&quot;&quot;&gt;&lt;span style=&quot;color: rgb(239, 176, 128); font-weight: bold;&quot;&gt;await&lt;/span&gt;&lt;/div&gt;&lt;/div&gt;" style="rounded=0;whiteSpace=wrap;html=1;fillColor=#f8cecc;strokeColor=#b85450;" vertex="1" parent="1">
          <mxGeometry x="280" y="1410" width="260" height="30" as="geometry" />
        </mxCell>
        <mxCell id="Fg0jXLRF8ofKdvB1S5mG-39" value="&lt;div style=&quot;color: rgb(216, 222, 233); font-family: Consolas, &amp;quot;Courier New&amp;quot;, monospace; font-size: 14px; line-height: 19px; white-space: pre;&quot;&gt;&lt;div style=&quot;line-height: 19px;&quot;&gt;&lt;div style=&quot;line-height: 19px;&quot;&gt;&lt;div style=&quot;line-height: 19px;&quot;&gt;&lt;div style=&quot;line-height: 19px;&quot;&gt;&lt;span style=&quot;color: rgb(239, 176, 128); font-weight: bold;&quot;&gt;countDown&lt;/span&gt;&lt;/div&gt;&lt;/div&gt;&lt;/div&gt;&lt;/div&gt;&lt;/div&gt;" style="rounded=0;whiteSpace=wrap;html=1;fillColor=#f8cecc;strokeColor=#b85450;" vertex="1" parent="1">
          <mxGeometry x="280" y="1450" width="260" height="30" as="geometry" />
        </mxCell>
        <mxCell id="Fg0jXLRF8ofKdvB1S5mG-40" value="&lt;div style=&quot;font-family: Consolas, &amp;quot;Courier New&amp;quot;, monospace; font-size: 14px; line-height: 19px; white-space-collapse: preserve;&quot;&gt;&lt;span&gt;&lt;font style=&quot;color: rgb(255, 255, 255);&quot;&gt;CountDownLatch&lt;/font&gt;&lt;/span&gt;&lt;/div&gt;" style="text;html=1;align=center;verticalAlign=middle;resizable=0;points=[];autosize=1;strokeColor=none;fillColor=none;" vertex="1" parent="1">
          <mxGeometry x="340" y="1240" width="130" height="30" as="geometry" />
        </mxCell>
      </root>
    </mxGraphModel>
  </diagram>
</mxfile>
